<svg width="1173" height="84" viewBox="0 0 1173 84" fill="none" xmlns="http://www.w3.org/2000/svg">
<path d="M0 62C0 50.9543 8.9543 42 20 42H1153C1164.05 42 1173 50.9543 1173 62V84H0V62Z" fill="white"/>
<path d="M808.953 41C803.713 41 798.683 43.0559 794.944 46.7257L762.797 78.2743C759.058 81.9441 754.028 84 748.788 84L414.613 84C409.374 84 404.344 81.9441 400.604 78.2743L368.457 46.7257C364.718 43.0559 359.688 41 354.449 41L50 41C38.9543 41 30 32.0457 30 21V20C30 8.95431 38.9543 0 50 0L1123 0C1134.05 0 1143 8.95431 1143 20V21C1143 32.0457 1134.05 41 1123 41L808.953 41Z" fill="#FFFAF8"/>
<rect width="1173" height="42" fill="#FFFAF8"/>
</svg>
